<svg width="363" height="150" viewBox="0 0 363 150" fill="none" xmlns="http://www.w3.org/2000/svg">
<rect x="2.85718" y="2" width="357.429" height="146" rx="18" stroke="#424242" stroke-width="4"/>
<path d="M49.576 86.224C47.4853 86.224 45.5653 85.7333 43.816 84.752C42.0667 83.7707 40.68 82.416 39.656 80.688C38.632 78.9387 38.12 76.9653 38.12 74.768C38.12 72.592 38.632 70.64 39.656 68.912C40.68 67.1627 42.0667 65.7973 43.816 64.816C45.5653 63.8347 47.4853 63.344 49.576 63.344C51.688 63.344 53.608 63.8347 55.336 64.816C57.0853 65.7973 58.4613 67.1627 59.464 68.912C60.488 70.64 61 72.592 61 74.768C61 76.9653 60.488 78.9387 59.464 80.688C58.4613 82.416 57.0853 83.7707 55.336 84.752C53.5867 85.7333 51.6667 86.224 49.576 86.224ZM49.576 82.224C50.92 82.224 52.104 81.9253 53.128 81.328C54.152 80.7093 54.952 79.8347 55.528 78.704C56.104 77.5733 56.392 76.2613 56.392 74.768C56.392 73.2747 56.104 71.9733 55.528 70.864C54.952 69.7333 54.152 68.8693 53.128 68.272C52.104 67.6747 50.92 67.376 49.576 67.376C48.232 67.376 47.0373 67.6747 45.992 68.272C44.968 68.8693 44.168 69.7333 43.592 70.864C43.016 71.9733 42.728 73.2747 42.728 74.768C42.728 76.2613 43.016 77.5733 43.592 78.704C44.168 79.8347 44.968 80.7093 45.992 81.328C47.0373 81.9253 48.232 82.224 49.576 82.224ZM68.813 71.024C69.389 70.0853 70.1357 69.3493 71.053 68.816C71.9917 68.2827 73.0583 68.016 74.253 68.016V72.72H73.069C71.661 72.72 70.5943 73.0507 69.869 73.712C69.165 74.3733 68.813 75.5253 68.813 77.168V86H64.333V68.272H68.813V71.024ZM84.2145 67.984C85.5372 67.984 86.6998 68.2507 87.7025 68.784C88.7052 69.296 89.4945 69.968 90.0705 70.8V68.272H94.5825V86.128C94.5825 87.7707 94.2518 89.232 93.5905 90.512C92.9292 91.8133 91.9372 92.8373 90.6145 93.584C89.2918 94.352 87.6918 94.736 85.8145 94.736C83.2972 94.736 81.2278 94.1493 79.6065 92.976C78.0065 91.8027 77.0998 90.2027 76.8865 88.176H81.3345C81.5692 88.9867 82.0705 89.6267 82.8385 90.096C83.6278 90.5867 84.5772 90.832 85.6865 90.832C86.9878 90.832 88.0438 90.4373 88.8545 89.648C89.6652 88.88 90.0705 87.7067 90.0705 86.128V83.376C89.4945 84.208 88.6945 84.9013 87.6705 85.456C86.6678 86.0107 85.5158 86.288 84.2145 86.288C82.7212 86.288 81.3558 85.904 80.1185 85.136C78.8812 84.368 77.8998 83.2907 77.1745 81.904C76.4705 80.496 76.1185 78.8853 76.1185 77.072C76.1185 75.28 76.4705 73.6907 77.1745 72.304C77.8998 70.9173 78.8705 69.8507 80.0865 69.104C81.3238 68.3573 82.6998 67.984 84.2145 67.984ZM90.0705 77.136C90.0705 76.048 89.8572 75.12 89.4305 74.352C89.0038 73.5627 88.4278 72.9653 87.7025 72.56C86.9772 72.1333 86.1985 71.92 85.3665 71.92C84.5345 71.92 83.7665 72.1227 83.0625 72.528C82.3585 72.9333 81.7825 73.5307 81.3345 74.32C80.9078 75.088 80.6945 76.0053 80.6945 77.072C80.6945 78.1387 80.9078 79.0773 81.3345 79.888C81.7825 80.6773 82.3585 81.2853 83.0625 81.712C83.7878 82.1387 84.5558 82.352 85.3665 82.352C86.1985 82.352 86.9772 82.1493 87.7025 81.744C88.4278 81.3173 89.0038 80.72 89.4305 79.952C89.8572 79.1627 90.0705 78.224 90.0705 77.136ZM97.806 77.072C97.806 75.28 98.158 73.6907 98.862 72.304C99.5873 70.9173 100.558 69.8507 101.774 69.104C103.011 68.3573 104.387 67.984 105.902 67.984C107.225 67.984 108.377 68.2507 109.358 68.784C110.361 69.3173 111.161 69.9893 111.758 70.8V68.272H116.27V86H111.758V83.408C111.182 84.24 110.382 84.9333 109.358 85.488C108.355 86.0213 107.193 86.288 105.87 86.288C104.377 86.288 103.011 85.904 101.774 85.136C100.558 84.368 99.5873 83.2907 98.862 81.904C98.158 80.496 97.806 78.8853 97.806 77.072ZM111.758 77.136C111.758 76.048 111.545 75.12 111.118 74.352C110.691 73.5627 110.115 72.9653 109.39 72.56C108.665 72.1333 107.886 71.92 107.054 71.92C106.222 71.92 105.454 72.1227 104.75 72.528C104.046 72.9333 103.47 73.5307 103.022 74.32C102.595 75.088 102.382 76.0053 102.382 77.072C102.382 78.1387 102.595 79.0773 103.022 79.888C103.47 80.6773 104.046 81.2853 104.75 81.712C105.475 82.1387 106.243 82.352 107.054 82.352C107.886 82.352 108.665 82.1493 109.39 81.744C110.115 81.3173 110.691 80.72 111.118 79.952C111.545 79.1627 111.758 78.224 111.758 77.136ZM130.47 68.016C132.582 68.016 134.288 68.688 135.59 70.032C136.891 71.3547 137.542 73.2107 137.542 75.6V86H133.062V76.208C133.062 74.8 132.71 73.7227 132.006 72.976C131.302 72.208 130.342 71.824 129.126 71.824C127.888 71.824 126.907 72.208 126.182 72.976C125.478 73.7227 125.126 74.8 125.126 76.208V86H120.646V68.272H125.126V70.48C125.723 69.712 126.48 69.1147 127.398 68.688C128.336 68.24 129.36 68.016 130.47 68.016ZM144.074 66.16C143.284 66.16 142.623 65.9147 142.09 65.424C141.578 64.912 141.322 64.2827 141.322 63.536C141.322 62.7893 141.578 62.1707 142.09 61.68C142.623 61.168 143.284 60.912 144.074 60.912C144.863 60.912 145.514 61.168 146.026 61.68C146.559 62.1707 146.826 62.7893 146.826 63.536C146.826 64.2827 146.559 64.912 146.026 65.424C145.514 65.9147 144.863 66.16 144.074 66.16ZM146.282 68.272V86H141.802V68.272H146.282ZM154.804 82.32H162.708V86H149.716V82.384L157.46 71.952H149.748V68.272H162.612V71.888L154.804 82.32ZM165.025 77.072C165.025 75.28 165.377 73.6907 166.081 72.304C166.806 70.9173 167.777 69.8507 168.993 69.104C170.23 68.3573 171.606 67.984 173.121 67.984C174.443 67.984 175.595 68.2507 176.577 68.784C177.579 69.3173 178.379 69.9893 178.977 70.8V68.272H183.489V86H178.977V83.408C178.401 84.24 177.601 84.9333 176.577 85.488C175.574 86.0213 174.411 86.288 173.089 86.288C171.595 86.288 170.23 85.904 168.993 85.136C167.777 84.368 166.806 83.2907 166.081 81.904C165.377 80.496 165.025 78.8853 165.025 77.072ZM178.977 77.136C178.977 76.048 178.763 75.12 178.337 74.352C177.91 73.5627 177.334 72.9653 176.609 72.56C175.883 72.1333 175.105 71.92 174.273 71.92C173.441 71.92 172.673 72.1227 171.969 72.528C171.265 72.9333 170.689 73.5307 170.241 74.32C169.814 75.088 169.601 76.0053 169.601 77.072C169.601 78.1387 169.814 79.0773 170.241 79.888C170.689 80.6773 171.265 81.2853 171.969 81.712C172.694 82.1387 173.462 82.352 174.273 82.352C175.105 82.352 175.883 82.1493 176.609 81.744C177.334 81.3173 177.91 80.72 178.337 79.952C178.763 79.1627 178.977 78.224 178.977 77.136ZM195.448 82.448C197.262 82.448 198.446 81.6373 199 80.016H203.832C203.384 81.744 202.552 83.152 201.336 84.24C200.142 85.328 198.638 85.9787 196.824 86.192V87.44C197.998 87.44 198.979 87.7387 199.768 88.336C200.579 88.9333 200.984 89.7973 200.984 90.928C200.984 92.08 200.568 92.9653 199.736 93.584C198.926 94.2027 197.923 94.512 196.728 94.512H192.184V91.888H195.992C196.504 91.888 196.888 91.8133 197.144 91.664C197.422 91.5147 197.56 91.248 197.56 90.864C197.56 90.48 197.422 90.2133 197.144 90.064C196.888 89.936 196.504 89.872 195.992 89.872H194.008V86.192C192.558 85.9787 191.278 85.4773 190.168 84.688C189.08 83.8773 188.227 82.832 187.608 81.552C187.011 80.2507 186.712 78.7787 186.712 77.136C186.712 75.3013 187.086 73.7013 187.832 72.336C188.579 70.9493 189.614 69.8827 190.936 69.136C192.259 68.368 193.774 67.984 195.48 67.984C197.678 67.984 199.491 68.5387 200.92 69.648C202.371 70.736 203.342 72.272 203.832 74.256H199C198.744 73.488 198.307 72.8907 197.688 72.464C197.091 72.016 196.344 71.792 195.448 71.792C194.168 71.792 193.155 72.2613 192.408 73.2C191.662 74.1173 191.288 75.4293 191.288 77.136C191.288 78.8213 191.662 80.1333 192.408 81.072C193.155 81.9893 194.168 82.448 195.448 82.448ZM205.962 77.072C205.962 75.28 206.314 73.6907 207.018 72.304C207.744 70.9173 208.714 69.8507 209.93 69.104C211.168 68.3573 212.544 67.984 214.058 67.984C215.381 67.984 216.533 68.2507 217.514 68.784C218.517 69.3173 219.317 69.9893 219.914 70.8V68.272H224.426V86H219.914V83.408C219.338 84.24 218.538 84.9333 217.514 85.488C216.512 86.0213 215.349 86.288 214.026 86.288C212.533 86.288 211.168 85.904 209.93 85.136C208.714 84.368 207.744 83.2907 207.018 81.904C206.314 80.496 205.962 78.8853 205.962 77.072ZM219.914 77.136C219.914 76.048 219.701 75.12 219.274 74.352C218.848 73.5627 218.272 72.9653 217.546 72.56C216.821 72.1333 216.042 71.92 215.21 71.92C214.378 71.92 213.61 72.1227 212.906 72.528C212.202 72.9333 211.626 73.5307 211.178 74.32C210.752 75.088 210.538 76.0053 210.538 77.072C210.538 78.1387 210.752 79.0773 211.178 79.888C211.626 80.6773 212.202 81.2853 212.906 81.712C213.632 82.1387 214.4 82.352 215.21 82.352C216.042 82.352 216.821 82.1493 217.546 81.744C218.272 81.3173 218.848 80.72 219.274 79.952C219.701 79.1627 219.914 78.224 219.914 77.136ZM210.058 66.576C210.25 65.168 210.688 64.1227 211.37 63.44C212.074 62.736 212.96 62.384 214.026 62.384C214.474 62.384 214.869 62.4587 215.21 62.608C215.552 62.736 215.936 62.928 216.362 63.184C217.002 63.5893 217.536 63.792 217.962 63.792C218.752 63.792 219.21 63.3333 219.338 62.416H221.738C221.546 63.824 221.098 64.88 220.394 65.584C219.712 66.2667 218.837 66.608 217.77 66.608C217.322 66.608 216.928 66.544 216.586 66.416C216.245 66.2667 215.861 66.064 215.434 65.808C214.816 65.3813 214.282 65.168 213.834 65.168C213.045 65.168 212.576 65.6373 212.426 66.576H210.058ZM236.674 86.288C234.967 86.288 233.431 85.9147 232.066 85.168C230.7 84.4 229.623 83.3227 228.834 81.936C228.066 80.5493 227.682 78.9493 227.682 77.136C227.682 75.3227 228.076 73.7227 228.866 72.336C229.676 70.9493 230.775 69.8827 232.162 69.136C233.548 68.368 235.095 67.984 236.802 67.984C238.508 67.984 240.055 68.368 241.442 69.136C242.828 69.8827 243.916 70.9493 244.706 72.336C245.516 73.7227 245.922 75.3227 245.922 77.136C245.922 78.9493 245.506 80.5493 244.674 81.936C243.863 83.3227 242.754 84.4 241.346 85.168C239.959 85.9147 238.402 86.288 236.674 86.288ZM236.674 82.384C237.484 82.384 238.242 82.192 238.946 81.808C239.671 81.4027 240.247 80.8053 240.674 80.016C241.1 79.2267 241.314 78.2667 241.314 77.136C241.314 75.4507 240.866 74.16 239.97 73.264C239.095 72.3467 238.018 71.888 236.738 71.888C235.458 71.888 234.38 72.3467 233.506 73.264C232.652 74.16 232.226 75.4507 232.226 77.136C232.226 78.8213 232.642 80.1227 233.474 81.04C234.327 81.936 235.394 82.384 236.674 82.384Z" fill="#424242"/>
<path fill-rule="evenodd" clip-rule="evenodd" d="M319.5 40H254.5L252 42.5V57.5L254.5 60H257V102.5L259.5 105H314.5L317 102.5V60H319.5L322 57.5V42.5L319.5 40ZM314.5 55H257V45H317V55H314.5ZM262 100V60H312V100H262ZM302 70H272V75H302V70Z" fill="#424242"/>
</svg>
