<svg width="363" height="150" viewBox="0 0 363 150" fill="none" xmlns="http://www.w3.org/2000/svg">
<rect x="2.71436" y="2" width="357.429" height="146" rx="18" stroke="#424242" stroke-width="4"/>
<path d="M67.92 86.224C66.3627 86.224 64.9547 85.9573 63.696 85.424C62.4587 84.8907 61.4773 84.1227 60.752 83.12C60.0267 82.1173 59.6533 80.9333 59.632 79.568H64.432C64.496 80.4853 64.816 81.2107 65.392 81.744C65.9893 82.2773 66.8 82.544 67.824 82.544C68.8693 82.544 69.6907 82.2987 70.288 81.808C70.8853 81.296 71.184 80.6347 71.184 79.824C71.184 79.1627 70.9813 78.6187 70.576 78.192C70.1707 77.7653 69.6587 77.4347 69.04 77.2C68.4427 76.944 67.6107 76.6667 66.544 76.368C65.0933 75.9413 63.9093 75.5253 62.992 75.12C62.096 74.6933 61.3173 74.064 60.656 73.232C60.016 72.3787 59.696 71.248 59.696 69.84C59.696 68.5173 60.0267 67.3653 60.688 66.384C61.3493 65.4027 62.2773 64.656 63.472 64.144C64.6667 63.6107 66.032 63.344 67.568 63.344C69.872 63.344 71.7387 63.9093 73.168 65.04C74.6187 66.1493 75.4187 67.7067 75.568 69.712H70.64C70.5973 68.944 70.2667 68.3147 69.648 67.824C69.0507 67.312 68.2507 67.056 67.248 67.056C66.3733 67.056 65.6693 67.28 65.136 67.728C64.624 68.176 64.368 68.8267 64.368 69.68C64.368 70.2773 64.56 70.7787 64.944 71.184C65.3493 71.568 65.84 71.888 66.416 72.144C67.0133 72.3787 67.8453 72.656 68.912 72.976C70.3627 73.4027 71.5467 73.8293 72.464 74.256C73.3813 74.6827 74.1707 75.3227 74.832 76.176C75.4933 77.0293 75.824 78.1493 75.824 79.536C75.824 80.7307 75.5147 81.84 74.896 82.864C74.2773 83.888 73.3707 84.7093 72.176 85.328C70.9813 85.9253 69.5627 86.224 67.92 86.224ZM96.188 76.752C96.188 77.392 96.1453 77.968 96.06 78.48H83.1C83.2067 79.76 83.6547 80.7627 84.444 81.488C85.2333 82.2133 86.204 82.576 87.356 82.576C89.02 82.576 90.204 81.8613 90.908 80.432H95.74C95.228 82.1387 94.2467 83.5467 92.796 84.656C91.3453 85.744 89.564 86.288 87.452 86.288C85.7453 86.288 84.2093 85.9147 82.844 85.168C81.5 84.4 80.444 83.3227 79.676 81.936C78.9293 80.5493 78.556 78.9493 78.556 77.136C78.556 75.3013 78.9293 73.6907 79.676 72.304C80.4227 70.9173 81.468 69.8507 82.812 69.104C84.156 68.3573 85.7027 67.984 87.452 67.984C89.1373 67.984 90.6413 68.3467 91.964 69.072C93.308 69.7973 94.3427 70.832 95.068 72.176C95.8147 73.4987 96.188 75.024 96.188 76.752ZM91.548 75.472C91.5267 74.32 91.1107 73.4027 90.3 72.72C89.4893 72.016 88.4973 71.664 87.324 71.664C86.2147 71.664 85.276 72.0053 84.508 72.688C83.7613 73.3493 83.3027 74.2773 83.132 75.472H91.548ZM106.402 67.984C107.725 67.984 108.887 68.2507 109.89 68.784C110.893 69.296 111.682 69.968 112.258 70.8V68.272H116.77V86.128C116.77 87.7707 116.439 89.232 115.778 90.512C115.117 91.8133 114.125 92.8373 112.802 93.584C111.479 94.352 109.879 94.736 108.002 94.736C105.485 94.736 103.415 94.1493 101.794 92.976C100.194 91.8027 99.2873 90.2027 99.074 88.176H103.522C103.757 88.9867 104.258 89.6267 105.026 90.096C105.815 90.5867 106.765 90.832 107.874 90.832C109.175 90.832 110.231 90.4373 111.042 89.648C111.853 88.88 112.258 87.7067 112.258 86.128V83.376C111.682 84.208 110.882 84.9013 109.858 85.456C108.855 86.0107 107.703 86.288 106.402 86.288C104.909 86.288 103.543 85.904 102.306 85.136C101.069 84.368 100.087 83.2907 99.362 81.904C98.658 80.496 98.306 78.8853 98.306 77.072C98.306 75.28 98.658 73.6907 99.362 72.304C100.087 70.9173 101.058 69.8507 102.274 69.104C103.511 68.3573 104.887 67.984 106.402 67.984ZM112.258 77.136C112.258 76.048 112.045 75.12 111.618 74.352C111.191 73.5627 110.615 72.9653 109.89 72.56C109.165 72.1333 108.386 71.92 107.554 71.92C106.722 71.92 105.954 72.1227 105.25 72.528C104.546 72.9333 103.97 73.5307 103.522 74.32C103.095 75.088 102.882 76.0053 102.882 77.072C102.882 78.1387 103.095 79.0773 103.522 79.888C103.97 80.6773 104.546 81.2853 105.25 81.712C105.975 82.1387 106.743 82.352 107.554 82.352C108.386 82.352 109.165 82.1493 109.89 81.744C110.615 81.3173 111.191 80.72 111.618 79.952C112.045 79.1627 112.258 78.224 112.258 77.136ZM137.882 68.272V86H133.37V83.76C132.794 84.528 132.036 85.136 131.098 85.584C130.18 86.0107 129.178 86.224 128.09 86.224C126.703 86.224 125.476 85.936 124.41 85.36C123.343 84.7627 122.5 83.8987 121.882 82.768C121.284 81.616 120.986 80.2507 120.986 78.672V68.272H125.466V78.032C125.466 79.44 125.818 80.528 126.522 81.296C127.226 82.0427 128.186 82.416 129.402 82.416C130.639 82.416 131.61 82.0427 132.314 81.296C133.018 80.528 133.37 79.44 133.37 78.032V68.272H137.882ZM146.782 71.024C147.358 70.0853 148.104 69.3493 149.022 68.816C149.96 68.2827 151.027 68.016 152.222 68.016V72.72H151.038C149.63 72.72 148.563 73.0507 147.838 73.712C147.134 74.3733 146.782 75.5253 146.782 77.168V86H142.302V68.272H146.782V71.024ZM154.087 77.072C154.087 75.28 154.439 73.6907 155.143 72.304C155.869 70.9173 156.839 69.8507 158.055 69.104C159.293 68.3573 160.669 67.984 162.183 67.984C163.506 67.984 164.658 68.2507 165.639 68.784C166.642 69.3173 167.442 69.9893 168.039 70.8V68.272H172.551V86H168.039V83.408C167.463 84.24 166.663 84.9333 165.639 85.488C164.637 86.0213 163.474 86.288 162.151 86.288C160.658 86.288 159.293 85.904 158.055 85.136C156.839 84.368 155.869 83.2907 155.143 81.904C154.439 80.496 154.087 78.8853 154.087 77.072ZM168.039 77.136C168.039 76.048 167.826 75.12 167.399 74.352C166.973 73.5627 166.397 72.9653 165.671 72.56C164.946 72.1333 164.167 71.92 163.335 71.92C162.503 71.92 161.735 72.1227 161.031 72.528C160.327 72.9333 159.751 73.5307 159.303 74.32C158.877 75.088 158.663 76.0053 158.663 77.072C158.663 78.1387 158.877 79.0773 159.303 79.888C159.751 80.6773 160.327 81.2853 161.031 81.712C161.757 82.1387 162.525 82.352 163.335 82.352C164.167 82.352 164.946 82.1493 165.671 81.744C166.397 81.3173 166.973 80.72 167.399 79.952C167.826 79.1627 168.039 78.224 168.039 77.136ZM184.511 82.448C186.324 82.448 187.508 81.6373 188.063 80.016H192.895C192.447 81.744 191.615 83.152 190.399 84.24C189.204 85.328 187.7 85.9787 185.887 86.192V87.44C187.06 87.44 188.041 87.7387 188.831 88.336C189.641 88.9333 190.047 89.7973 190.047 90.928C190.047 92.08 189.631 92.9653 188.799 93.584C187.988 94.2027 186.985 94.512 185.791 94.512H181.247V91.888H185.055C185.567 91.888 185.951 91.8133 186.207 91.664C186.484 91.5147 186.623 91.248 186.623 90.864C186.623 90.48 186.484 90.2133 186.207 90.064C185.951 89.936 185.567 89.872 185.055 89.872H183.071V86.192C181.62 85.9787 180.34 85.4773 179.231 84.688C178.143 83.8773 177.289 82.832 176.671 81.552C176.073 80.2507 175.775 78.7787 175.775 77.136C175.775 75.3013 176.148 73.7013 176.895 72.336C177.641 70.9493 178.676 69.8827 179.999 69.136C181.321 68.368 182.836 67.984 184.543 67.984C186.74 67.984 188.553 68.5387 189.983 69.648C191.433 70.736 192.404 72.272 192.895 74.256H188.063C187.807 73.488 187.369 72.8907 186.751 72.464C186.153 72.016 185.407 71.792 184.511 71.792C183.231 71.792 182.217 72.2613 181.471 73.2C180.724 74.1173 180.351 75.4293 180.351 77.136C180.351 78.8213 180.724 80.1333 181.471 81.072C182.217 81.9893 183.231 82.448 184.511 82.448ZM195.025 77.072C195.025 75.28 195.377 73.6907 196.081 72.304C196.806 70.9173 197.777 69.8507 198.993 69.104C200.23 68.3573 201.606 67.984 203.121 67.984C204.443 67.984 205.595 68.2507 206.577 68.784C207.579 69.3173 208.379 69.9893 208.977 70.8V68.272H213.489V86H208.977V83.408C208.401 84.24 207.601 84.9333 206.577 85.488C205.574 86.0213 204.411 86.288 203.089 86.288C201.595 86.288 200.23 85.904 198.993 85.136C197.777 84.368 196.806 83.2907 196.081 81.904C195.377 80.496 195.025 78.8853 195.025 77.072ZM208.977 77.136C208.977 76.048 208.763 75.12 208.337 74.352C207.91 73.5627 207.334 72.9653 206.609 72.56C205.883 72.1333 205.105 71.92 204.273 71.92C203.441 71.92 202.673 72.1227 201.969 72.528C201.265 72.9333 200.689 73.5307 200.241 74.32C199.814 75.088 199.601 76.0053 199.601 77.072C199.601 78.1387 199.814 79.0773 200.241 79.888C200.689 80.6773 201.265 81.2853 201.969 81.712C202.694 82.1387 203.462 82.352 204.273 82.352C205.105 82.352 205.883 82.1493 206.609 81.744C207.334 81.3173 207.91 80.72 208.337 79.952C208.763 79.1627 208.977 78.224 208.977 77.136Z" fill="#424242"/>
<path d="M287 70H282V60C282 54.6957 279.893 49.6086 276.142 45.8579C272.391 42.1071 267.304 40 262 40C256.696 40 251.609 42.1071 247.858 45.8579C244.107 49.6086 242 54.6957 242 60V70H237L232 75V105L237 110H287L292 105V75L287 70ZM247 60C247 56.0218 248.58 52.2064 251.393 49.3934C254.206 46.5804 258.022 45 262 45C265.978 45 269.794 46.5804 272.607 49.3934C275.42 52.2064 277 56.0218 277 60V70H247V60ZM287 105H237V75H287V105Z" fill="#424242"/>
</svg>
