<svg width="362" height="150" viewBox="0 0 362 150" fill="none" xmlns="http://www.w3.org/2000/svg">
<rect x="2" y="2" width="357.429" height="146" rx="18" stroke="#424242" stroke-width="4"/>
<path d="M77.44 86L72.768 77.52H71.456V86H65.984V63.536H75.168C76.9387 63.536 78.4427 63.8453 79.68 64.464C80.9387 65.0827 81.8773 65.936 82.496 67.024C83.1147 68.0907 83.424 69.2853 83.424 70.608C83.424 72.1013 82.9973 73.4347 82.144 74.608C81.312 75.7813 80.0747 76.6133 78.432 77.104L83.616 86H77.44ZM71.456 73.648H74.848C75.8507 73.648 76.5973 73.4027 77.088 72.912C77.6 72.4213 77.856 71.728 77.856 70.832C77.856 69.9787 77.6 69.3067 77.088 68.816C76.5973 68.3253 75.8507 68.08 74.848 68.08H71.456V73.648ZM103.691 76.784C103.691 77.296 103.659 77.8293 103.595 78.384H91.211C91.2963 79.4933 91.6483 80.3467 92.267 80.944C92.907 81.52 93.6857 81.808 94.603 81.808C95.9683 81.808 96.9177 81.232 97.451 80.08H103.275C102.976 81.2533 102.432 82.3093 101.643 83.248C100.875 84.1867 99.9043 84.9227 98.731 85.456C97.5577 85.9893 96.2457 86.256 94.795 86.256C93.0457 86.256 91.4883 85.8827 90.123 85.136C88.7577 84.3893 87.691 83.3227 86.923 81.936C86.155 80.5493 85.771 78.928 85.771 77.072C85.771 75.216 86.1443 73.5947 86.891 72.208C87.659 70.8213 88.7257 69.7547 90.091 69.008C91.4563 68.2613 93.0243 67.888 94.795 67.888C96.523 67.888 98.059 68.2507 99.403 68.976C100.747 69.7013 101.792 70.736 102.539 72.08C103.307 73.424 103.691 74.992 103.691 76.784ZM98.091 75.344C98.091 74.4053 97.771 73.6587 97.131 73.104C96.491 72.5493 95.691 72.272 94.731 72.272C93.8137 72.272 93.035 72.5387 92.395 73.072C91.7763 73.6053 91.3923 74.3627 91.243 75.344H98.091ZM113.362 67.888C114.62 67.888 115.719 68.144 116.658 68.656C117.618 69.168 118.354 69.84 118.866 70.672V68.144H124.338V85.968C124.338 87.6107 124.007 89.0933 123.346 90.416C122.706 91.76 121.714 92.8267 120.37 93.616C119.047 94.4053 117.394 94.8 115.41 94.8C112.764 94.8 110.62 94.1707 108.978 92.912C107.335 91.6747 106.396 89.9893 106.162 87.856H111.57C111.74 88.5387 112.146 89.072 112.786 89.456C113.426 89.8613 114.215 90.064 115.154 90.064C116.284 90.064 117.18 89.7333 117.842 89.072C118.524 88.432 118.866 87.3973 118.866 85.968V83.44C118.332 84.272 117.596 84.9547 116.658 85.488C115.719 86 114.62 86.256 113.362 86.256C111.89 86.256 110.556 85.8827 109.362 85.136C108.167 84.368 107.218 83.2907 106.514 81.904C105.831 80.496 105.49 78.8747 105.49 77.04C105.49 75.2053 105.831 73.5947 106.514 72.208C107.218 70.8213 108.167 69.7547 109.362 69.008C110.556 68.2613 111.89 67.888 113.362 67.888ZM118.866 77.072C118.866 75.7067 118.482 74.6293 117.714 73.84C116.967 73.0507 116.05 72.656 114.962 72.656C113.874 72.656 112.946 73.0507 112.178 73.84C111.431 74.608 111.058 75.6747 111.058 77.04C111.058 78.4053 111.431 79.4933 112.178 80.304C112.946 81.0933 113.874 81.488 114.962 81.488C116.05 81.488 116.967 81.0933 117.714 80.304C118.482 79.5147 118.866 78.4373 118.866 77.072ZM131.049 66.288C130.089 66.288 129.299 66.0107 128.681 65.456C128.083 64.88 127.785 64.176 127.785 63.344C127.785 62.4907 128.083 61.7867 128.681 61.232C129.299 60.656 130.089 60.368 131.049 60.368C131.987 60.368 132.755 60.656 133.353 61.232C133.971 61.7867 134.281 62.4907 134.281 63.344C134.281 64.176 133.971 64.88 133.353 65.456C132.755 66.0107 131.987 66.288 131.049 66.288ZM133.769 68.144V86H128.297V68.144H133.769ZM144.998 86.256C143.441 86.256 142.054 85.9893 140.838 85.456C139.622 84.9227 138.662 84.1973 137.958 83.28C137.254 82.3413 136.859 81.296 136.774 80.144H142.182C142.246 80.7627 142.534 81.264 143.046 81.648C143.558 82.032 144.187 82.224 144.934 82.224C145.617 82.224 146.139 82.096 146.502 81.84C146.886 81.5627 147.078 81.2107 147.078 80.784C147.078 80.272 146.811 79.8987 146.278 79.664C145.745 79.408 144.881 79.1307 143.686 78.832C142.406 78.5333 141.339 78.224 140.486 77.904C139.633 77.5627 138.897 77.04 138.278 76.336C137.659 75.6107 137.35 74.64 137.35 73.424C137.35 72.4 137.627 71.472 138.182 70.64C138.758 69.7867 139.59 69.1147 140.678 68.624C141.787 68.1333 143.099 67.888 144.614 67.888C146.854 67.888 148.614 68.4427 149.894 69.552C151.195 70.6613 151.942 72.1333 152.134 73.968H147.078C146.993 73.3493 146.715 72.8587 146.246 72.496C145.798 72.1333 145.201 71.952 144.454 71.952C143.814 71.952 143.323 72.08 142.982 72.336C142.641 72.5707 142.47 72.9013 142.47 73.328C142.47 73.84 142.737 74.224 143.27 74.48C143.825 74.736 144.678 74.992 145.83 75.248C147.153 75.5893 148.23 75.9307 149.062 76.272C149.894 76.592 150.619 77.1253 151.238 77.872C151.878 78.5973 152.209 79.5787 152.23 80.816C152.23 81.8613 151.931 82.8 151.334 83.632C150.758 84.4427 149.915 85.0827 148.806 85.552C147.718 86.0213 146.449 86.256 144.998 86.256ZM165.53 81.36V86H162.746C160.762 86 159.215 85.52 158.106 84.56C156.996 83.5787 156.442 81.9893 156.442 79.792V72.688H154.266V68.144H156.442V63.792H161.914V68.144H165.498V72.688H161.914V79.856C161.914 80.3893 162.042 80.7733 162.298 81.008C162.554 81.2427 162.98 81.36 163.578 81.36H165.53ZM174.05 71.12C174.69 70.1387 175.49 69.3707 176.45 68.816C177.41 68.24 178.476 67.952 179.65 67.952V73.744H178.146C176.78 73.744 175.756 74.0427 175.074 74.64C174.391 75.216 174.05 76.24 174.05 77.712V86H168.578V68.144H174.05V71.12ZM190.393 86.256C188.644 86.256 187.065 85.8827 185.657 85.136C184.271 84.3893 183.172 83.3227 182.361 81.936C181.572 80.5493 181.177 78.928 181.177 77.072C181.177 75.2373 181.583 73.6267 182.393 72.24C183.204 70.832 184.313 69.7547 185.721 69.008C187.129 68.2613 188.708 67.888 190.457 67.888C192.207 67.888 193.785 68.2613 195.193 69.008C196.601 69.7547 197.711 70.832 198.521 72.24C199.332 73.6267 199.737 75.2373 199.737 77.072C199.737 78.9067 199.321 80.528 198.489 81.936C197.679 83.3227 196.559 84.3893 195.129 85.136C193.721 85.8827 192.143 86.256 190.393 86.256ZM190.393 81.52C191.439 81.52 192.324 81.136 193.049 80.368C193.796 79.6 194.169 78.5013 194.169 77.072C194.169 75.6427 193.807 74.544 193.081 73.776C192.377 73.008 191.503 72.624 190.457 72.624C189.391 72.624 188.505 73.008 187.801 73.776C187.097 74.5227 186.745 75.6213 186.745 77.072C186.745 78.5013 187.087 79.6 187.769 80.368C188.473 81.136 189.348 81.52 190.393 81.52Z" fill="#424242"/>
<g clip-path="url(#clip0_117_2)">
<path fill-rule="evenodd" clip-rule="evenodd" d="M255.55 50H289.5L292.05 52.5V75.035C290.488 73.8557 288.793 72.8639 287 72.08V64.95H255.45L251.15 69.25L249.4 70H226.95V100H252.5C252.853 101.743 253.38 103.41 254.08 105H224.55L222.05 102.5V47.5L224.55 45H249.55L251.3 45.75L255.55 50ZM254.45 60H286.95L287 55.05H254.5L252.7 54.3L248.45 50.05H227V65.05H248.4L252.7 60.75L254.45 60Z" fill="#424242"/>
<path fill-rule="evenodd" clip-rule="evenodd" d="M265.89 78.37C268.074 76.8946 270.527 75.8653 273.11 75.3412C275.692 74.8172 278.353 74.8086 280.939 75.3162C283.525 75.8237 285.985 76.8373 288.178 78.2986C290.371 79.76 292.254 81.6403 293.717 83.8316C295.181 86.0228 296.198 88.4818 296.708 91.0671C297.219 93.6525 297.213 96.3132 296.692 98.8964C296.171 101.48 295.145 103.934 293.672 106.12C292.199 108.305 290.309 110.178 288.11 111.63C283.699 114.543 278.314 115.592 273.133 114.547C267.951 113.502 263.394 110.447 260.457 106.052C257.521 101.656 256.444 96.2771 257.462 91.0899C258.48 85.9027 261.51 81.3295 265.89 78.37ZM276.54 103.32L288.475 87.41L284.475 84.41L274.09 98.255L267.585 93.05L264.46 96.95L272.98 103.77L276.545 103.32H276.54Z" fill="#424242"/>
</g>
<defs>
<clipPath id="clip0_117_2">
<rect width="80" height="80" fill="white" transform="translate(217 35)"/>
</clipPath>
</defs>
</svg>
