<svg width="362" height="150" viewBox="0 0 362 150" fill="none" xmlns="http://www.w3.org/2000/svg">
<rect x="2.57129" y="2" width="357.429" height="146" rx="18" stroke="#424242" stroke-width="4"/>
<path d="M51 63.664V67.28H41.688V73.008H48.824V76.56H41.688V86H37.208V63.664H51ZM58.6568 62.32V86H54.1768V62.32H58.6568ZM79.563 76.752C79.563 77.392 79.5203 77.968 79.435 78.48H66.475C66.5817 79.76 67.0297 80.7627 67.819 81.488C68.6083 82.2133 69.579 82.576 70.731 82.576C72.395 82.576 73.579 81.8613 74.283 80.432H79.115C78.603 82.1387 77.6217 83.5467 76.171 84.656C74.7203 85.744 72.939 86.288 70.827 86.288C69.1203 86.288 67.5843 85.9147 66.219 85.168C64.875 84.4 63.819 83.3227 63.051 81.936C62.3043 80.5493 61.931 78.9493 61.931 77.136C61.931 75.3013 62.3043 73.6907 63.051 72.304C63.7977 70.9173 64.843 69.8507 66.187 69.104C67.531 68.3573 69.0777 67.984 70.827 67.984C72.5123 67.984 74.0163 68.3467 75.339 69.072C76.683 69.7973 77.7177 70.832 78.443 72.176C79.1897 73.4987 79.563 75.024 79.563 76.752ZM74.923 75.472C74.9017 74.32 74.4857 73.4027 73.675 72.72C72.8643 72.016 71.8723 71.664 70.699 71.664C69.5897 71.664 68.651 72.0053 67.883 72.688C67.1363 73.3493 66.6777 74.2773 66.507 75.472H74.923ZM92.625 86L88.977 80.496L85.745 86H80.945L86.737 77.104L80.881 68.272H85.937L89.553 73.744L92.817 68.272H97.617L91.793 77.104L97.681 86H92.625ZM102.386 66.16C101.597 66.16 100.936 65.9147 100.402 65.424C99.8903 64.912 99.6343 64.2827 99.6343 63.536C99.6343 62.7893 99.8903 62.1707 100.402 61.68C100.936 61.168 101.597 60.912 102.386 60.912C103.176 60.912 103.826 61.168 104.338 61.68C104.872 62.1707 105.138 62.7893 105.138 63.536C105.138 64.2827 104.872 64.912 104.338 65.424C103.826 65.9147 103.176 66.16 102.386 66.16ZM104.594 68.272V86H100.114V68.272H104.594ZM113.501 70.864C114.077 70.0107 114.866 69.3173 115.869 68.784C116.893 68.2507 118.055 67.984 119.357 67.984C120.871 67.984 122.237 68.3573 123.453 69.104C124.69 69.8507 125.661 70.9173 126.365 72.304C127.09 73.6693 127.453 75.2587 127.453 77.072C127.453 78.8853 127.09 80.496 126.365 81.904C125.661 83.2907 124.69 84.368 123.453 85.136C122.237 85.904 120.871 86.288 119.357 86.288C118.034 86.288 116.871 86.032 115.869 85.52C114.887 84.9867 114.098 84.304 113.501 83.472V86H109.021V62.32H113.501V70.864ZM122.877 77.072C122.877 76.0053 122.653 75.088 122.205 74.32C121.778 73.5307 121.202 72.9333 120.477 72.528C119.773 72.1227 119.005 71.92 118.173 71.92C117.362 71.92 116.594 72.1333 115.869 72.56C115.165 72.9653 114.589 73.5627 114.141 74.352C113.714 75.1413 113.501 76.0693 113.501 77.136C113.501 78.2027 113.714 79.1307 114.141 79.92C114.589 80.7093 115.165 81.3173 115.869 81.744C116.594 82.1493 117.362 82.352 118.173 82.352C119.005 82.352 119.773 82.1387 120.477 81.712C121.202 81.2853 121.778 80.6773 122.205 79.888C122.653 79.0987 122.877 78.16 122.877 77.072ZM132.98 66.16C132.191 66.16 131.529 65.9147 130.996 65.424C130.484 64.912 130.228 64.2827 130.228 63.536C130.228 62.7893 130.484 62.1707 130.996 61.68C131.529 61.168 132.191 60.912 132.98 60.912C133.769 60.912 134.42 61.168 134.932 61.68C135.465 62.1707 135.732 62.7893 135.732 63.536C135.732 64.2827 135.465 64.912 134.932 65.424C134.42 65.9147 133.769 66.16 132.98 66.16ZM135.188 68.272V86H130.708V68.272H135.188ZM144.094 62.32V86H139.614V62.32H144.094ZM150.793 66.16C150.003 66.16 149.342 65.9147 148.809 65.424C148.297 64.912 148.041 64.2827 148.041 63.536C148.041 62.7893 148.297 62.1707 148.809 61.68C149.342 61.168 150.003 60.912 150.793 60.912C151.582 60.912 152.233 61.168 152.745 61.68C153.278 62.1707 153.545 62.7893 153.545 63.536C153.545 64.2827 153.278 64.912 152.745 65.424C152.233 65.9147 151.582 66.16 150.793 66.16ZM153.001 68.272V86H148.521V68.272H153.001ZM156.275 77.072C156.275 75.28 156.627 73.6907 157.331 72.304C158.056 70.9173 159.037 69.8507 160.275 69.104C161.512 68.3573 162.888 67.984 164.403 67.984C165.555 67.984 166.653 68.24 167.699 68.752C168.744 69.2427 169.576 69.904 170.195 70.736V62.32H174.739V86H170.195V83.376C169.64 84.2507 168.861 84.9547 167.859 85.488C166.856 86.0213 165.693 86.288 164.371 86.288C162.877 86.288 161.512 85.904 160.275 85.136C159.037 84.368 158.056 83.2907 157.331 81.904C156.627 80.496 156.275 78.8853 156.275 77.072ZM170.227 77.136C170.227 76.048 170.013 75.12 169.587 74.352C169.16 73.5627 168.584 72.9653 167.859 72.56C167.133 72.1333 166.355 71.92 165.523 71.92C164.691 71.92 163.923 72.1227 163.219 72.528C162.515 72.9333 161.939 73.5307 161.491 74.32C161.064 75.088 160.851 76.0053 160.851 77.072C160.851 78.1387 161.064 79.0773 161.491 79.888C161.939 80.6773 162.515 81.2853 163.219 81.712C163.944 82.1387 164.712 82.352 165.523 82.352C166.355 82.352 167.133 82.1493 167.859 81.744C168.584 81.3173 169.16 80.72 169.587 79.952C170.013 79.1627 170.227 78.224 170.227 77.136ZM177.962 77.072C177.962 75.28 178.314 73.6907 179.018 72.304C179.744 70.9173 180.714 69.8507 181.93 69.104C183.168 68.3573 184.544 67.984 186.058 67.984C187.381 67.984 188.533 68.2507 189.514 68.784C190.517 69.3173 191.317 69.9893 191.914 70.8V68.272H196.426V86H191.914V83.408C191.338 84.24 190.538 84.9333 189.514 85.488C188.512 86.0213 187.349 86.288 186.026 86.288C184.533 86.288 183.168 85.904 181.93 85.136C180.714 84.368 179.744 83.2907 179.018 81.904C178.314 80.496 177.962 78.8853 177.962 77.072ZM191.914 77.136C191.914 76.048 191.701 75.12 191.274 74.352C190.848 73.5627 190.272 72.9653 189.546 72.56C188.821 72.1333 188.042 71.92 187.21 71.92C186.378 71.92 185.61 72.1227 184.906 72.528C184.202 72.9333 183.626 73.5307 183.178 74.32C182.752 75.088 182.538 76.0053 182.538 77.072C182.538 78.1387 182.752 79.0773 183.178 79.888C183.626 80.6773 184.202 81.2853 184.906 81.712C185.632 82.1387 186.4 82.352 187.21 82.352C188.042 82.352 188.821 82.1493 189.546 81.744C190.272 81.3173 190.848 80.72 191.274 79.952C191.701 79.1627 191.914 78.224 191.914 77.136ZM199.65 77.072C199.65 75.28 200.002 73.6907 200.706 72.304C201.431 70.9173 202.412 69.8507 203.65 69.104C204.887 68.3573 206.263 67.984 207.778 67.984C208.93 67.984 210.028 68.24 211.074 68.752C212.119 69.2427 212.951 69.904 213.57 70.736V62.32H218.114V86H213.57V83.376C213.015 84.2507 212.236 84.9547 211.234 85.488C210.231 86.0213 209.068 86.288 207.746 86.288C206.252 86.288 204.887 85.904 203.65 85.136C202.412 84.368 201.431 83.2907 200.706 81.904C200.002 80.496 199.65 78.8853 199.65 77.072ZM213.602 77.136C213.602 76.048 213.388 75.12 212.962 74.352C212.535 73.5627 211.959 72.9653 211.234 72.56C210.508 72.1333 209.73 71.92 208.898 71.92C208.066 71.92 207.298 72.1227 206.594 72.528C205.89 72.9333 205.314 73.5307 204.866 74.32C204.439 75.088 204.226 76.0053 204.226 77.072C204.226 78.1387 204.439 79.0773 204.866 79.888C205.314 80.6773 205.89 81.2853 206.594 81.712C207.319 82.1387 208.087 82.352 208.898 82.352C209.73 82.352 210.508 82.1493 211.234 81.744C211.959 81.3173 212.535 80.72 212.962 79.952C213.388 79.1627 213.602 78.224 213.602 77.136ZM238.969 76.752C238.969 77.392 238.927 77.968 238.841 78.48H225.881C225.988 79.76 226.436 80.7627 227.225 81.488C228.015 82.2133 228.985 82.576 230.137 82.576C231.801 82.576 232.985 81.8613 233.689 80.432H238.521C238.009 82.1387 237.028 83.5467 235.577 84.656C234.127 85.744 232.345 86.288 230.233 86.288C228.527 86.288 226.991 85.9147 225.625 85.168C224.281 84.4 223.225 83.3227 222.457 81.936C221.711 80.5493 221.337 78.9493 221.337 77.136C221.337 75.3013 221.711 73.6907 222.457 72.304C223.204 70.9173 224.249 69.8507 225.593 69.104C226.937 68.3573 228.484 67.984 230.233 67.984C231.919 67.984 233.423 68.3467 234.745 69.072C236.089 69.7973 237.124 70.832 237.849 72.176C238.596 73.4987 238.969 75.024 238.969 76.752ZM234.329 75.472C234.308 74.32 233.892 73.4027 233.081 72.72C232.271 72.016 231.279 71.664 230.105 71.664C228.996 71.664 228.057 72.0053 227.289 72.688C226.543 73.3493 226.084 74.2773 225.913 75.472H234.329Z" fill="#424242"/>
<path fill-rule="evenodd" clip-rule="evenodd" d="M257.03 76.335L250.9 82.5L247 78.65L257.45 68.3L261.25 68.35L271.7 78.95L267.9 82.75L262.065 76.85C262.463 82.2552 264.606 87.3849 268.172 91.4661C271.738 95.5474 276.534 98.3592 281.837 99.4779C287.14 100.597 292.663 99.9617 297.574 97.6688C302.485 95.3758 306.518 91.549 309.065 86.765L313.13 89.75C309.928 95.4255 304.966 99.9043 298.993 102.509C293.02 105.114 286.361 105.703 280.024 104.188C273.686 102.672 268.014 99.1344 263.866 94.1092C259.717 89.0841 257.318 82.8449 257.03 76.335ZM311.98 74.005L305.8 67.75L302 71.55L312.45 82.1L316.25 82.15L326.7 71.8L322.95 68L316.98 73.9C316.746 67.4623 314.446 61.2709 310.42 56.2418C306.394 51.2127 300.856 47.6132 294.626 45.9757C288.395 44.3382 281.803 44.7497 275.825 47.1493C269.846 49.549 264.799 53.8093 261.43 59.3L265.48 62.27C268.226 57.6251 272.402 53.9935 277.383 51.9177C282.364 49.842 287.882 49.4335 293.115 50.7534C298.347 52.0732 303.012 55.0506 306.412 59.2405C309.812 63.4305 311.765 68.6132 311.98 74.005Z" fill="#424242"/>
</svg>
