<svg width="1600" height="150" viewBox="0 0 1600 150" fill="none" xmlns="http://www.w3.org/2000/svg">
<rect x="1240.57" y="2" width="357.429" height="146" rx="18" stroke="#424242" stroke-width="4"/>
<rect x="827.714" y="2" width="357.429" height="146" rx="18" stroke="#424242" stroke-width="4"/>
<rect x="414.857" y="2" width="357.429" height="146" rx="18" stroke="#424242" stroke-width="4"/>
<rect x="2" y="2" width="357.429" height="146" rx="18" stroke="#424242" stroke-width="4"/>
<rect x="2" y="2" width="357.429" height="146" rx="18" stroke="#424242" stroke-width="4"/>
<path d="M77.44 86L72.768 77.52H71.456V86H65.984V63.536H75.168C76.9387 63.536 78.4427 63.8453 79.68 64.464C80.9387 65.0827 81.8773 65.936 82.496 67.024C83.1147 68.0907 83.424 69.2853 83.424 70.608C83.424 72.1013 82.9973 73.4347 82.144 74.608C81.312 75.7813 80.0747 76.6133 78.432 77.104L83.616 86H77.44ZM71.456 73.648H74.848C75.8507 73.648 76.5973 73.4027 77.088 72.912C77.6 72.4213 77.856 71.728 77.856 70.832C77.856 69.9787 77.6 69.3067 77.088 68.816C76.5973 68.3253 75.8507 68.08 74.848 68.08H71.456V73.648ZM103.691 76.784C103.691 77.296 103.659 77.8293 103.595 78.384H91.211C91.2963 79.4933 91.6483 80.3467 92.267 80.944C92.907 81.52 93.6857 81.808 94.603 81.808C95.9683 81.808 96.9177 81.232 97.451 80.08H103.275C102.976 81.2533 102.432 82.3093 101.643 83.248C100.875 84.1867 99.9043 84.9227 98.731 85.456C97.5577 85.9893 96.2457 86.256 94.795 86.256C93.0457 86.256 91.4883 85.8827 90.123 85.136C88.7577 84.3893 87.691 83.3227 86.923 81.936C86.155 80.5493 85.771 78.928 85.771 77.072C85.771 75.216 86.1443 73.5947 86.891 72.208C87.659 70.8213 88.7257 69.7547 90.091 69.008C91.4563 68.2613 93.0243 67.888 94.795 67.888C96.523 67.888 98.059 68.2507 99.403 68.976C100.747 69.7013 101.792 70.736 102.539 72.08C103.307 73.424 103.691 74.992 103.691 76.784ZM98.091 75.344C98.091 74.4053 97.771 73.6587 97.131 73.104C96.491 72.5493 95.691 72.272 94.731 72.272C93.8137 72.272 93.035 72.5387 92.395 73.072C91.7763 73.6053 91.3923 74.3627 91.243 75.344H98.091ZM113.362 67.888C114.62 67.888 115.719 68.144 116.658 68.656C117.618 69.168 118.354 69.84 118.866 70.672V68.144H124.338V85.968C124.338 87.6107 124.007 89.0933 123.346 90.416C122.706 91.76 121.714 92.8267 120.37 93.616C119.047 94.4053 117.394 94.8 115.41 94.8C112.764 94.8 110.62 94.1707 108.978 92.912C107.335 91.6747 106.396 89.9893 106.162 87.856H111.57C111.74 88.5387 112.146 89.072 112.786 89.456C113.426 89.8613 114.215 90.064 115.154 90.064C116.284 90.064 117.18 89.7333 117.842 89.072C118.524 88.432 118.866 87.3973 118.866 85.968V83.44C118.332 84.272 117.596 84.9547 116.658 85.488C115.719 86 114.62 86.256 113.362 86.256C111.89 86.256 110.556 85.8827 109.362 85.136C108.167 84.368 107.218 83.2907 106.514 81.904C105.831 80.496 105.49 78.8747 105.49 77.04C105.49 75.2053 105.831 73.5947 106.514 72.208C107.218 70.8213 108.167 69.7547 109.362 69.008C110.556 68.2613 111.89 67.888 113.362 67.888ZM118.866 77.072C118.866 75.7067 118.482 74.6293 117.714 73.84C116.967 73.0507 116.05 72.656 114.962 72.656C113.874 72.656 112.946 73.0507 112.178 73.84C111.431 74.608 111.058 75.6747 111.058 77.04C111.058 78.4053 111.431 79.4933 112.178 80.304C112.946 81.0933 113.874 81.488 114.962 81.488C116.05 81.488 116.967 81.0933 117.714 80.304C118.482 79.5147 118.866 78.4373 118.866 77.072ZM131.049 66.288C130.089 66.288 129.299 66.0107 128.681 65.456C128.083 64.88 127.785 64.176 127.785 63.344C127.785 62.4907 128.083 61.7867 128.681 61.232C129.299 60.656 130.089 60.368 131.049 60.368C131.987 60.368 132.755 60.656 133.353 61.232C133.971 61.7867 134.281 62.4907 134.281 63.344C134.281 64.176 133.971 64.88 133.353 65.456C132.755 66.0107 131.987 66.288 131.049 66.288ZM133.769 68.144V86H128.297V68.144H133.769ZM144.998 86.256C143.441 86.256 142.054 85.9893 140.838 85.456C139.622 84.9227 138.662 84.1973 137.958 83.28C137.254 82.3413 136.859 81.296 136.774 80.144H142.182C142.246 80.7627 142.534 81.264 143.046 81.648C143.558 82.032 144.187 82.224 144.934 82.224C145.617 82.224 146.139 82.096 146.502 81.84C146.886 81.5627 147.078 81.2107 147.078 80.784C147.078 80.272 146.811 79.8987 146.278 79.664C145.745 79.408 144.881 79.1307 143.686 78.832C142.406 78.5333 141.339 78.224 140.486 77.904C139.633 77.5627 138.897 77.04 138.278 76.336C137.659 75.6107 137.35 74.64 137.35 73.424C137.35 72.4 137.627 71.472 138.182 70.64C138.758 69.7867 139.59 69.1147 140.678 68.624C141.787 68.1333 143.099 67.888 144.614 67.888C146.854 67.888 148.614 68.4427 149.894 69.552C151.195 70.6613 151.942 72.1333 152.134 73.968H147.078C146.993 73.3493 146.715 72.8587 146.246 72.496C145.798 72.1333 145.201 71.952 144.454 71.952C143.814 71.952 143.323 72.08 142.982 72.336C142.641 72.5707 142.47 72.9013 142.47 73.328C142.47 73.84 142.737 74.224 143.27 74.48C143.825 74.736 144.678 74.992 145.83 75.248C147.153 75.5893 148.23 75.9307 149.062 76.272C149.894 76.592 150.619 77.1253 151.238 77.872C151.878 78.5973 152.209 79.5787 152.23 80.816C152.23 81.8613 151.931 82.8 151.334 83.632C150.758 84.4427 149.915 85.0827 148.806 85.552C147.718 86.0213 146.449 86.256 144.998 86.256ZM165.53 81.36V86H162.746C160.762 86 159.215 85.52 158.106 84.56C156.996 83.5787 156.442 81.9893 156.442 79.792V72.688H154.266V68.144H156.442V63.792H161.914V68.144H165.498V72.688H161.914V79.856C161.914 80.3893 162.042 80.7733 162.298 81.008C162.554 81.2427 162.98 81.36 163.578 81.36H165.53ZM174.05 71.12C174.69 70.1387 175.49 69.3707 176.45 68.816C177.41 68.24 178.476 67.952 179.65 67.952V73.744H178.146C176.78 73.744 175.756 74.0427 175.074 74.64C174.391 75.216 174.05 76.24 174.05 77.712V86H168.578V68.144H174.05V71.12ZM190.393 86.256C188.644 86.256 187.065 85.8827 185.657 85.136C184.271 84.3893 183.172 83.3227 182.361 81.936C181.572 80.5493 181.177 78.928 181.177 77.072C181.177 75.2373 181.583 73.6267 182.393 72.24C183.204 70.832 184.313 69.7547 185.721 69.008C187.129 68.2613 188.708 67.888 190.457 67.888C192.207 67.888 193.785 68.2613 195.193 69.008C196.601 69.7547 197.711 70.832 198.521 72.24C199.332 73.6267 199.737 75.2373 199.737 77.072C199.737 78.9067 199.321 80.528 198.489 81.936C197.679 83.3227 196.559 84.3893 195.129 85.136C193.721 85.8827 192.143 86.256 190.393 86.256ZM190.393 81.52C191.439 81.52 192.324 81.136 193.049 80.368C193.796 79.6 194.169 78.5013 194.169 77.072C194.169 75.6427 193.807 74.544 193.081 73.776C192.377 73.008 191.503 72.624 190.457 72.624C189.391 72.624 188.505 73.008 187.801 73.776C187.097 74.5227 186.745 75.6213 186.745 77.072C186.745 78.5013 187.087 79.6 187.769 80.368C188.473 81.136 189.348 81.52 190.393 81.52Z" fill="#424242"/>
<path d="M461.576 86.224C459.485 86.224 457.565 85.7333 455.816 84.752C454.067 83.7707 452.68 82.416 451.656 80.688C450.632 78.9387 450.12 76.9653 450.12 74.768C450.12 72.592 450.632 70.64 451.656 68.912C452.68 67.1627 454.067 65.7973 455.816 64.816C457.565 63.8347 459.485 63.344 461.576 63.344C463.688 63.344 465.608 63.8347 467.336 64.816C469.085 65.7973 470.461 67.1627 471.464 68.912C472.488 70.64 473 72.592 473 74.768C473 76.9653 472.488 78.9387 471.464 80.688C470.461 82.416 469.085 83.7707 467.336 84.752C465.587 85.7333 463.667 86.224 461.576 86.224ZM461.576 82.224C462.92 82.224 464.104 81.9253 465.128 81.328C466.152 80.7093 466.952 79.8347 467.528 78.704C468.104 77.5733 468.392 76.2613 468.392 74.768C468.392 73.2747 468.104 71.9733 467.528 70.864C466.952 69.7333 466.152 68.8693 465.128 68.272C464.104 67.6747 462.92 67.376 461.576 67.376C460.232 67.376 459.037 67.6747 457.992 68.272C456.968 68.8693 456.168 69.7333 455.592 70.864C455.016 71.9733 454.728 73.2747 454.728 74.768C454.728 76.2613 455.016 77.5733 455.592 78.704C456.168 79.8347 456.968 80.7093 457.992 81.328C459.037 81.9253 460.232 82.224 461.576 82.224ZM480.813 71.024C481.389 70.0853 482.136 69.3493 483.053 68.816C483.992 68.2827 485.058 68.016 486.253 68.016V72.72H485.069C483.661 72.72 482.594 73.0507 481.869 73.712C481.165 74.3733 480.813 75.5253 480.813 77.168V86H476.333V68.272H480.813V71.024ZM496.215 67.984C497.537 67.984 498.7 68.2507 499.703 68.784C500.705 69.296 501.495 69.968 502.071 70.8V68.272H506.583V86.128C506.583 87.7707 506.252 89.232 505.591 90.512C504.929 91.8133 503.937 92.8373 502.615 93.584C501.292 94.352 499.692 94.736 497.815 94.736C495.297 94.736 493.228 94.1493 491.607 92.976C490.007 91.8027 489.1 90.2027 488.887 88.176H493.335C493.569 88.9867 494.071 89.6267 494.839 90.096C495.628 90.5867 496.577 90.832 497.687 90.832C498.988 90.832 500.044 90.4373 500.855 89.648C501.665 88.88 502.071 87.7067 502.071 86.128V83.376C501.495 84.208 500.695 84.9013 499.671 85.456C498.668 86.0107 497.516 86.288 496.215 86.288C494.721 86.288 493.356 85.904 492.119 85.136C490.881 84.368 489.9 83.2907 489.174 81.904C488.47 80.496 488.118 78.8853 488.118 77.072C488.118 75.28 488.47 73.6907 489.174 72.304C489.9 70.9173 490.871 69.8507 492.087 69.104C493.324 68.3573 494.7 67.984 496.215 67.984ZM502.071 77.136C502.071 76.048 501.857 75.12 501.431 74.352C501.004 73.5627 500.428 72.9653 499.703 72.56C498.977 72.1333 498.199 71.92 497.367 71.92C496.535 71.92 495.767 72.1227 495.062 72.528C494.359 72.9333 493.783 73.5307 493.335 74.32C492.908 75.088 492.695 76.0053 492.695 77.072C492.695 78.1387 492.908 79.0773 493.335 79.888C493.783 80.6773 494.359 81.2853 495.062 81.712C495.788 82.1387 496.556 82.352 497.367 82.352C498.199 82.352 498.977 82.1493 499.703 81.744C500.428 81.3173 501.004 80.72 501.431 79.952C501.857 79.1627 502.071 78.224 502.071 77.136ZM509.806 77.072C509.806 75.28 510.158 73.6907 510.862 72.304C511.587 70.9173 512.558 69.8507 513.774 69.104C515.011 68.3573 516.387 67.984 517.902 67.984C519.225 67.984 520.377 68.2507 521.358 68.784C522.361 69.3173 523.161 69.9893 523.758 70.8V68.272H528.27V86H523.758V83.408C523.182 84.24 522.382 84.9333 521.358 85.488C520.355 86.0213 519.193 86.288 517.87 86.288C516.377 86.288 515.011 85.904 513.774 85.136C512.558 84.368 511.587 83.2907 510.862 81.904C510.158 80.496 509.806 78.8853 509.806 77.072ZM523.758 77.136C523.758 76.048 523.545 75.12 523.118 74.352C522.691 73.5627 522.115 72.9653 521.39 72.56C520.665 72.1333 519.886 71.92 519.054 71.92C518.222 71.92 517.454 72.1227 516.75 72.528C516.046 72.9333 515.47 73.5307 515.022 74.32C514.595 75.088 514.382 76.0053 514.382 77.072C514.382 78.1387 514.595 79.0773 515.022 79.888C515.47 80.6773 516.046 81.2853 516.75 81.712C517.475 82.1387 518.243 82.352 519.054 82.352C519.886 82.352 520.665 82.1493 521.39 81.744C522.115 81.3173 522.691 80.72 523.118 79.952C523.545 79.1627 523.758 78.224 523.758 77.136ZM542.47 68.016C544.582 68.016 546.288 68.688 547.59 70.032C548.891 71.3547 549.542 73.2107 549.542 75.6V86H545.062V76.208C545.062 74.8 544.71 73.7227 544.006 72.976C543.302 72.208 542.342 71.824 541.126 71.824C539.888 71.824 538.907 72.208 538.182 72.976C537.478 73.7227 537.126 74.8 537.126 76.208V86H532.646V68.272H537.126V70.48C537.723 69.712 538.48 69.1147 539.398 68.688C540.336 68.24 541.36 68.016 542.47 68.016ZM556.074 66.16C555.284 66.16 554.623 65.9147 554.09 65.424C553.578 64.912 553.322 64.2827 553.322 63.536C553.322 62.7893 553.578 62.1707 554.09 61.68C554.623 61.168 555.284 60.912 556.074 60.912C556.863 60.912 557.514 61.168 558.026 61.68C558.559 62.1707 558.826 62.7893 558.826 63.536C558.826 64.2827 558.559 64.912 558.026 65.424C557.514 65.9147 556.863 66.16 556.074 66.16ZM558.282 68.272V86H553.802V68.272H558.282ZM566.804 82.32H574.708V86H561.716V82.384L569.46 71.952H561.748V68.272H574.612V71.888L566.804 82.32ZM577.025 77.072C577.025 75.28 577.377 73.6907 578.081 72.304C578.806 70.9173 579.777 69.8507 580.993 69.104C582.23 68.3573 583.606 67.984 585.121 67.984C586.443 67.984 587.595 68.2507 588.577 68.784C589.579 69.3173 590.379 69.9893 590.977 70.8V68.272H595.489V86H590.977V83.408C590.401 84.24 589.601 84.9333 588.577 85.488C587.574 86.0213 586.411 86.288 585.089 86.288C583.595 86.288 582.23 85.904 580.993 85.136C579.777 84.368 578.806 83.2907 578.081 81.904C577.377 80.496 577.025 78.8853 577.025 77.072ZM590.977 77.136C590.977 76.048 590.763 75.12 590.337 74.352C589.91 73.5627 589.334 72.9653 588.609 72.56C587.883 72.1333 587.105 71.92 586.273 71.92C585.441 71.92 584.673 72.1227 583.969 72.528C583.265 72.9333 582.689 73.5307 582.241 74.32C581.814 75.088 581.601 76.0053 581.601 77.072C581.601 78.1387 581.814 79.0773 582.241 79.888C582.689 80.6773 583.265 81.2853 583.969 81.712C584.694 82.1387 585.462 82.352 586.273 82.352C587.105 82.352 587.883 82.1493 588.609 81.744C589.334 81.3173 589.91 80.72 590.337 79.952C590.763 79.1627 590.977 78.224 590.977 77.136ZM607.448 82.448C609.262 82.448 610.446 81.6373 611 80.016H615.832C615.384 81.744 614.552 83.152 613.336 84.24C612.142 85.328 610.638 85.9787 608.824 86.192V87.44C609.998 87.44 610.979 87.7387 611.768 88.336C612.579 88.9333 612.984 89.7973 612.984 90.928C612.984 92.08 612.568 92.9653 611.736 93.584C610.926 94.2027 609.923 94.512 608.728 94.512H604.184V91.888H607.992C608.504 91.888 608.888 91.8133 609.144 91.664C609.422 91.5147 609.56 91.248 609.56 90.864C609.56 90.48 609.422 90.2133 609.144 90.064C608.888 89.936 608.504 89.872 607.992 89.872H606.008V86.192C604.558 85.9787 603.278 85.4773 602.168 84.688C601.08 83.8773 600.227 82.832 599.608 81.552C599.011 80.2507 598.712 78.7787 598.712 77.136C598.712 75.3013 599.086 73.7013 599.832 72.336C600.579 70.9493 601.614 69.8827 602.936 69.136C604.259 68.368 605.774 67.984 607.48 67.984C609.678 67.984 611.491 68.5387 612.92 69.648C614.371 70.736 615.342 72.272 615.832 74.256H611C610.744 73.488 610.307 72.8907 609.688 72.464C609.091 72.016 608.344 71.792 607.448 71.792C606.168 71.792 605.155 72.2613 604.408 73.2C603.662 74.1173 603.288 75.4293 603.288 77.136C603.288 78.8213 603.662 80.1333 604.408 81.072C605.155 81.9893 606.168 82.448 607.448 82.448ZM617.962 77.072C617.962 75.28 618.314 73.6907 619.018 72.304C619.744 70.9173 620.714 69.8507 621.93 69.104C623.168 68.3573 624.544 67.984 626.058 67.984C627.381 67.984 628.533 68.2507 629.514 68.784C630.517 69.3173 631.317 69.9893 631.914 70.8V68.272H636.426V86H631.914V83.408C631.338 84.24 630.538 84.9333 629.514 85.488C628.512 86.0213 627.349 86.288 626.026 86.288C624.533 86.288 623.168 85.904 621.93 85.136C620.714 84.368 619.744 83.2907 619.018 81.904C618.314 80.496 617.962 78.8853 617.962 77.072ZM631.914 77.136C631.914 76.048 631.701 75.12 631.274 74.352C630.848 73.5627 630.272 72.9653 629.546 72.56C628.821 72.1333 628.042 71.92 627.21 71.92C626.378 71.92 625.61 72.1227 624.906 72.528C624.202 72.9333 623.626 73.5307 623.178 74.32C622.752 75.088 622.538 76.0053 622.538 77.072C622.538 78.1387 622.752 79.0773 623.178 79.888C623.626 80.6773 624.202 81.2853 624.906 81.712C625.632 82.1387 626.4 82.352 627.21 82.352C628.042 82.352 628.821 82.1493 629.546 81.744C630.272 81.3173 630.848 80.72 631.274 79.952C631.701 79.1627 631.914 78.224 631.914 77.136ZM622.058 66.576C622.25 65.168 622.688 64.1227 623.37 63.44C624.074 62.736 624.96 62.384 626.026 62.384C626.474 62.384 626.869 62.4587 627.21 62.608C627.552 62.736 627.936 62.928 628.362 63.184C629.002 63.5893 629.536 63.792 629.962 63.792C630.752 63.792 631.21 63.3333 631.338 62.416H633.738C633.546 63.824 633.098 64.88 632.394 65.584C631.712 66.2667 630.837 66.608 629.77 66.608C629.322 66.608 628.928 66.544 628.586 66.416C628.245 66.2667 627.861 66.064 627.434 65.808C626.816 65.3813 626.282 65.168 625.834 65.168C625.045 65.168 624.576 65.6373 624.426 66.576H622.058ZM648.674 86.288C646.967 86.288 645.431 85.9147 644.066 85.168C642.7 84.4 641.623 83.3227 640.834 81.936C640.066 80.5493 639.682 78.9493 639.682 77.136C639.682 75.3227 640.076 73.7227 640.866 72.336C641.676 70.9493 642.775 69.8827 644.162 69.136C645.548 68.368 647.095 67.984 648.802 67.984C650.508 67.984 652.055 68.368 653.442 69.136C654.828 69.8827 655.916 70.9493 656.706 72.336C657.516 73.7227 657.922 75.3227 657.922 77.136C657.922 78.9493 657.506 80.5493 656.674 81.936C655.863 83.3227 654.754 84.4 653.346 85.168C651.959 85.9147 650.402 86.288 648.674 86.288ZM648.674 82.384C649.484 82.384 650.242 82.192 650.946 81.808C651.671 81.4027 652.247 80.8053 652.674 80.016C653.1 79.2267 653.314 78.2667 653.314 77.136C653.314 75.4507 652.866 74.16 651.97 73.264C651.095 72.3467 650.018 71.888 648.738 71.888C647.458 71.888 646.38 72.3467 645.506 73.264C644.652 74.16 644.226 75.4507 644.226 77.136C644.226 78.8213 644.642 80.1227 645.474 81.04C646.327 81.936 647.394 82.384 648.674 82.384Z" fill="#424242"/>
<path d="M892.92 86.224C891.363 86.224 889.955 85.9573 888.696 85.424C887.459 84.8907 886.477 84.1227 885.752 83.12C885.027 82.1173 884.653 80.9333 884.632 79.568H889.432C889.496 80.4853 889.816 81.2107 890.392 81.744C890.989 82.2773 891.8 82.544 892.824 82.544C893.869 82.544 894.691 82.2987 895.288 81.808C895.885 81.296 896.184 80.6347 896.184 79.824C896.184 79.1627 895.981 78.6187 895.576 78.192C895.171 77.7653 894.659 77.4347 894.04 77.2C893.443 76.944 892.611 76.6667 891.544 76.368C890.093 75.9413 888.909 75.5253 887.992 75.12C887.096 74.6933 886.317 74.064 885.656 73.232C885.016 72.3787 884.696 71.248 884.696 69.84C884.696 68.5173 885.027 67.3653 885.688 66.384C886.349 65.4027 887.277 64.656 888.472 64.144C889.667 63.6107 891.032 63.344 892.568 63.344C894.872 63.344 896.739 63.9093 898.168 65.04C899.619 66.1493 900.419 67.7067 900.568 69.712H895.64C895.597 68.944 895.267 68.3147 894.648 67.824C894.051 67.312 893.251 67.056 892.248 67.056C891.373 67.056 890.669 67.28 890.136 67.728C889.624 68.176 889.368 68.8267 889.368 69.68C889.368 70.2773 889.56 70.7787 889.944 71.184C890.349 71.568 890.84 71.888 891.416 72.144C892.013 72.3787 892.845 72.656 893.912 72.976C895.363 73.4027 896.547 73.8293 897.464 74.256C898.381 74.6827 899.171 75.3227 899.832 76.176C900.493 77.0293 900.824 78.1493 900.824 79.536C900.824 80.7307 900.515 81.84 899.896 82.864C899.277 83.888 898.371 84.7093 897.176 85.328C895.981 85.9253 894.563 86.224 892.92 86.224ZM921.188 76.752C921.188 77.392 921.145 77.968 921.06 78.48H908.1C908.207 79.76 908.655 80.7627 909.444 81.488C910.233 82.2133 911.204 82.576 912.356 82.576C914.02 82.576 915.204 81.8613 915.908 80.432H920.74C920.228 82.1387 919.247 83.5467 917.796 84.656C916.345 85.744 914.564 86.288 912.452 86.288C910.745 86.288 909.209 85.9147 907.844 85.168C906.5 84.4 905.444 83.3227 904.676 81.936C903.929 80.5493 903.556 78.9493 903.556 77.136C903.556 75.3013 903.929 73.6907 904.676 72.304C905.423 70.9173 906.468 69.8507 907.812 69.104C909.156 68.3573 910.703 67.984 912.452 67.984C914.137 67.984 915.641 68.3467 916.964 69.072C918.308 69.7973 919.343 70.832 920.068 72.176C920.815 73.4987 921.188 75.024 921.188 76.752ZM916.548 75.472C916.527 74.32 916.111 73.4027 915.3 72.72C914.489 72.016 913.497 71.664 912.324 71.664C911.215 71.664 910.276 72.0053 909.508 72.688C908.761 73.3493 908.303 74.2773 908.132 75.472H916.548ZM931.402 67.984C932.725 67.984 933.887 68.2507 934.89 68.784C935.893 69.296 936.682 69.968 937.258 70.8V68.272H941.77V86.128C941.77 87.7707 941.439 89.232 940.778 90.512C940.117 91.8133 939.125 92.8373 937.802 93.584C936.479 94.352 934.879 94.736 933.002 94.736C930.485 94.736 928.415 94.1493 926.794 92.976C925.194 91.8027 924.287 90.2027 924.074 88.176H928.522C928.757 88.9867 929.258 89.6267 930.026 90.096C930.815 90.5867 931.765 90.832 932.874 90.832C934.175 90.832 935.231 90.4373 936.042 89.648C936.853 88.88 937.258 87.7067 937.258 86.128V83.376C936.682 84.208 935.882 84.9013 934.858 85.456C933.855 86.0107 932.703 86.288 931.402 86.288C929.909 86.288 928.543 85.904 927.306 85.136C926.069 84.368 925.087 83.2907 924.362 81.904C923.658 80.496 923.306 78.8853 923.306 77.072C923.306 75.28 923.658 73.6907 924.362 72.304C925.087 70.9173 926.058 69.8507 927.274 69.104C928.511 68.3573 929.887 67.984 931.402 67.984ZM937.258 77.136C937.258 76.048 937.045 75.12 936.618 74.352C936.191 73.5627 935.615 72.9653 934.89 72.56C934.165 72.1333 933.386 71.92 932.554 71.92C931.722 71.92 930.954 72.1227 930.25 72.528C929.546 72.9333 928.97 73.5307 928.522 74.32C928.095 75.088 927.882 76.0053 927.882 77.072C927.882 78.1387 928.095 79.0773 928.522 79.888C928.97 80.6773 929.546 81.2853 930.25 81.712C930.975 82.1387 931.743 82.352 932.554 82.352C933.386 82.352 934.165 82.1493 934.89 81.744C935.615 81.3173 936.191 80.72 936.618 79.952C937.045 79.1627 937.258 78.224 937.258 77.136ZM962.882 68.272V86H958.37V83.76C957.794 84.528 957.036 85.136 956.098 85.584C955.18 86.0107 954.178 86.224 953.09 86.224C951.703 86.224 950.476 85.936 949.41 85.36C948.343 84.7627 947.5 83.8987 946.882 82.768C946.284 81.616 945.986 80.2507 945.986 78.672V68.272H950.466V78.032C950.466 79.44 950.818 80.528 951.522 81.296C952.226 82.0427 953.186 82.416 954.402 82.416C955.639 82.416 956.61 82.0427 957.314 81.296C958.018 80.528 958.37 79.44 958.37 78.032V68.272H962.882ZM971.782 71.024C972.358 70.0853 973.104 69.3493 974.022 68.816C974.96 68.2827 976.027 68.016 977.222 68.016V72.72H976.038C974.63 72.72 973.563 73.0507 972.838 73.712C972.134 74.3733 971.782 75.5253 971.782 77.168V86H967.302V68.272H971.782V71.024ZM979.087 77.072C979.087 75.28 979.439 73.6907 980.143 72.304C980.869 70.9173 981.839 69.8507 983.055 69.104C984.293 68.3573 985.669 67.984 987.183 67.984C988.506 67.984 989.658 68.2507 990.639 68.784C991.642 69.3173 992.442 69.9893 993.039 70.8V68.272H997.551V86H993.039V83.408C992.463 84.24 991.663 84.9333 990.639 85.488C989.637 86.0213 988.474 86.288 987.151 86.288C985.658 86.288 984.293 85.904 983.055 85.136C981.839 84.368 980.869 83.2907 980.143 81.904C979.439 80.496 979.087 78.8853 979.087 77.072ZM993.039 77.136C993.039 76.048 992.826 75.12 992.399 74.352C991.973 73.5627 991.397 72.9653 990.671 72.56C989.946 72.1333 989.167 71.92 988.335 71.92C987.503 71.92 986.735 72.1227 986.031 72.528C985.327 72.9333 984.751 73.5307 984.303 74.32C983.877 75.088 983.663 76.0053 983.663 77.072C983.663 78.1387 983.877 79.0773 984.303 79.888C984.751 80.6773 985.327 81.2853 986.031 81.712C986.757 82.1387 987.525 82.352 988.335 82.352C989.167 82.352 989.946 82.1493 990.671 81.744C991.397 81.3173 991.973 80.72 992.399 79.952C992.826 79.1627 993.039 78.224 993.039 77.136ZM1009.51 82.448C1011.32 82.448 1012.51 81.6373 1013.06 80.016H1017.89C1017.45 81.744 1016.61 83.152 1015.4 84.24C1014.2 85.328 1012.7 85.9787 1010.89 86.192V87.44C1012.06 87.44 1013.04 87.7387 1013.83 88.336C1014.64 88.9333 1015.05 89.7973 1015.05 90.928C1015.05 92.08 1014.63 92.9653 1013.8 93.584C1012.99 94.2027 1011.99 94.512 1010.79 94.512H1006.25V91.888H1010.05C1010.57 91.888 1010.95 91.8133 1011.21 91.664C1011.48 91.5147 1011.62 91.248 1011.62 90.864C1011.62 90.48 1011.48 90.2133 1011.21 90.064C1010.95 89.936 1010.57 89.872 1010.05 89.872H1008.07V86.192C1006.62 85.9787 1005.34 85.4773 1004.23 84.688C1003.14 83.8773 1002.29 82.832 1001.67 81.552C1001.07 80.2507 1000.77 78.7787 1000.77 77.136C1000.77 75.3013 1001.15 73.7013 1001.89 72.336C1002.64 70.9493 1003.68 69.8827 1005 69.136C1006.32 68.368 1007.84 67.984 1009.54 67.984C1011.74 67.984 1013.55 68.5387 1014.98 69.648C1016.43 70.736 1017.4 72.272 1017.89 74.256H1013.06C1012.81 73.488 1012.37 72.8907 1011.75 72.464C1011.15 72.016 1010.41 71.792 1009.51 71.792C1008.23 71.792 1007.22 72.2613 1006.47 73.2C1005.72 74.1173 1005.35 75.4293 1005.35 77.136C1005.35 78.8213 1005.72 80.1333 1006.47 81.072C1007.22 81.9893 1008.23 82.448 1009.51 82.448ZM1020.02 77.072C1020.02 75.28 1020.38 73.6907 1021.08 72.304C1021.81 70.9173 1022.78 69.8507 1023.99 69.104C1025.23 68.3573 1026.61 67.984 1028.12 67.984C1029.44 67.984 1030.6 68.2507 1031.58 68.784C1032.58 69.3173 1033.38 69.9893 1033.98 70.8V68.272H1038.49V86H1033.98V83.408C1033.4 84.24 1032.6 84.9333 1031.58 85.488C1030.57 86.0213 1029.41 86.288 1028.09 86.288C1026.6 86.288 1025.23 85.904 1023.99 85.136C1022.78 84.368 1021.81 83.2907 1021.08 81.904C1020.38 80.496 1020.02 78.8853 1020.02 77.072ZM1033.98 77.136C1033.98 76.048 1033.76 75.12 1033.34 74.352C1032.91 73.5627 1032.33 72.9653 1031.61 72.56C1030.88 72.1333 1030.1 71.92 1029.27 71.92C1028.44 71.92 1027.67 72.1227 1026.97 72.528C1026.26 72.9333 1025.69 73.5307 1025.24 74.32C1024.81 75.088 1024.6 76.0053 1024.6 77.072C1024.6 78.1387 1024.81 79.0773 1025.24 79.888C1025.69 80.6773 1026.26 81.2853 1026.97 81.712C1027.69 82.1387 1028.46 82.352 1029.27 82.352C1030.1 82.352 1030.88 82.1493 1031.61 81.744C1032.33 81.3173 1032.91 80.72 1033.34 79.952C1033.76 79.1627 1033.98 78.224 1033.98 77.136Z" fill="#424242"/>
<path d="M1112 70H1107V60C1107 54.6957 1104.89 49.6086 1101.14 45.8579C1097.39 42.1071 1092.3 40 1087 40C1081.7 40 1076.61 42.1071 1072.86 45.8579C1069.11 49.6086 1067 54.6957 1067 60V70H1062L1057 75V105L1062 110H1112L1117 105V75L1112 70ZM1072 60C1072 56.0218 1073.58 52.2064 1076.39 49.3934C1079.21 46.5804 1083.02 45 1087 45C1090.98 45 1094.79 46.5804 1097.61 49.3934C1100.42 52.2064 1102 56.0218 1102 60V70H1072V60ZM1112 105H1062V75H1112V105Z" fill="#424242"/>
<path d="M1289 63.664V67.28H1279.69V73.008H1286.82V76.56H1279.69V86H1275.21V63.664H1289ZM1296.66 62.32V86H1292.18V62.32H1296.66ZM1317.56 76.752C1317.56 77.392 1317.52 77.968 1317.44 78.48H1304.48C1304.58 79.76 1305.03 80.7627 1305.82 81.488C1306.61 82.2133 1307.58 82.576 1308.73 82.576C1310.4 82.576 1311.58 81.8613 1312.28 80.432H1317.12C1316.6 82.1387 1315.62 83.5467 1314.17 84.656C1312.72 85.744 1310.94 86.288 1308.83 86.288C1307.12 86.288 1305.58 85.9147 1304.22 85.168C1302.88 84.4 1301.82 83.3227 1301.05 81.936C1300.3 80.5493 1299.93 78.9493 1299.93 77.136C1299.93 75.3013 1300.3 73.6907 1301.05 72.304C1301.8 70.9173 1302.84 69.8507 1304.19 69.104C1305.53 68.3573 1307.08 67.984 1308.83 67.984C1310.51 67.984 1312.02 68.3467 1313.34 69.072C1314.68 69.7973 1315.72 70.832 1316.44 72.176C1317.19 73.4987 1317.56 75.024 1317.56 76.752ZM1312.92 75.472C1312.9 74.32 1312.49 73.4027 1311.68 72.72C1310.86 72.016 1309.87 71.664 1308.7 71.664C1307.59 71.664 1306.65 72.0053 1305.88 72.688C1305.14 73.3493 1304.68 74.2773 1304.51 75.472H1312.92ZM1330.63 86L1326.98 80.496L1323.75 86H1318.95L1324.74 77.104L1318.88 68.272H1323.94L1327.55 73.744L1330.82 68.272H1335.62L1329.79 77.104L1335.68 86H1330.63ZM1340.39 66.16C1339.6 66.16 1338.94 65.9147 1338.4 65.424C1337.89 64.912 1337.63 64.2827 1337.63 63.536C1337.63 62.7893 1337.89 62.1707 1338.4 61.68C1338.94 61.168 1339.6 60.912 1340.39 60.912C1341.18 60.912 1341.83 61.168 1342.34 61.68C1342.87 62.1707 1343.14 62.7893 1343.14 63.536C1343.14 64.2827 1342.87 64.912 1342.34 65.424C1341.83 65.9147 1341.18 66.16 1340.39 66.16ZM1342.59 68.272V86H1338.11V68.272H1342.59ZM1351.5 70.864C1352.08 70.0107 1352.87 69.3173 1353.87 68.784C1354.89 68.2507 1356.06 67.984 1357.36 67.984C1358.87 67.984 1360.24 68.3573 1361.45 69.104C1362.69 69.8507 1363.66 70.9173 1364.36 72.304C1365.09 73.6693 1365.45 75.2587 1365.45 77.072C1365.45 78.8853 1365.09 80.496 1364.36 81.904C1363.66 83.2907 1362.69 84.368 1361.45 85.136C1360.24 85.904 1358.87 86.288 1357.36 86.288C1356.03 86.288 1354.87 86.032 1353.87 85.52C1352.89 84.9867 1352.1 84.304 1351.5 83.472V86H1347.02V62.32H1351.5V70.864ZM1360.88 77.072C1360.88 76.0053 1360.65 75.088 1360.2 74.32C1359.78 73.5307 1359.2 72.9333 1358.48 72.528C1357.77 72.1227 1357 71.92 1356.17 71.92C1355.36 71.92 1354.59 72.1333 1353.87 72.56C1353.16 72.9653 1352.59 73.5627 1352.14 74.352C1351.71 75.1413 1351.5 76.0693 1351.5 77.136C1351.5 78.2027 1351.71 79.1307 1352.14 79.92C1352.59 80.7093 1353.16 81.3173 1353.87 81.744C1354.59 82.1493 1355.36 82.352 1356.17 82.352C1357 82.352 1357.77 82.1387 1358.48 81.712C1359.2 81.2853 1359.78 80.6773 1360.2 79.888C1360.65 79.0987 1360.88 78.16 1360.88 77.072ZM1370.98 66.16C1370.19 66.16 1369.53 65.9147 1369 65.424C1368.48 64.912 1368.23 64.2827 1368.23 63.536C1368.23 62.7893 1368.48 62.1707 1369 61.68C1369.53 61.168 1370.19 60.912 1370.98 60.912C1371.77 60.912 1372.42 61.168 1372.93 61.68C1373.47 62.1707 1373.73 62.7893 1373.73 63.536C1373.73 64.2827 1373.47 64.912 1372.93 65.424C1372.42 65.9147 1371.77 66.16 1370.98 66.16ZM1373.19 68.272V86H1368.71V68.272H1373.19ZM1382.09 62.32V86H1377.61V62.32H1382.09ZM1388.79 66.16C1388 66.16 1387.34 65.9147 1386.81 65.424C1386.3 64.912 1386.04 64.2827 1386.04 63.536C1386.04 62.7893 1386.3 62.1707 1386.81 61.68C1387.34 61.168 1388 60.912 1388.79 60.912C1389.58 60.912 1390.23 61.168 1390.74 61.68C1391.28 62.1707 1391.54 62.7893 1391.54 63.536C1391.54 64.2827 1391.28 64.912 1390.74 65.424C1390.23 65.9147 1389.58 66.16 1388.79 66.16ZM1391 68.272V86H1386.52V68.272H1391ZM1394.27 77.072C1394.27 75.28 1394.63 73.6907 1395.33 72.304C1396.06 70.9173 1397.04 69.8507 1398.27 69.104C1399.51 68.3573 1400.89 67.984 1402.4 67.984C1403.55 67.984 1404.65 68.24 1405.7 68.752C1406.74 69.2427 1407.58 69.904 1408.19 70.736V62.32H1412.74V86H1408.19V83.376C1407.64 84.2507 1406.86 84.9547 1405.86 85.488C1404.86 86.0213 1403.69 86.288 1402.37 86.288C1400.88 86.288 1399.51 85.904 1398.27 85.136C1397.04 84.368 1396.06 83.2907 1395.33 81.904C1394.63 80.496 1394.27 78.8853 1394.27 77.072ZM1408.23 77.136C1408.23 76.048 1408.01 75.12 1407.59 74.352C1407.16 73.5627 1406.58 72.9653 1405.86 72.56C1405.13 72.1333 1404.35 71.92 1403.52 71.92C1402.69 71.92 1401.92 72.1227 1401.22 72.528C1400.51 72.9333 1399.94 73.5307 1399.49 74.32C1399.06 75.088 1398.85 76.0053 1398.85 77.072C1398.85 78.1387 1399.06 79.0773 1399.49 79.888C1399.94 80.6773 1400.51 81.2853 1401.22 81.712C1401.94 82.1387 1402.71 82.352 1403.52 82.352C1404.35 82.352 1405.13 82.1493 1405.86 81.744C1406.58 81.3173 1407.16 80.72 1407.59 79.952C1408.01 79.1627 1408.23 78.224 1408.23 77.136ZM1415.96 77.072C1415.96 75.28 1416.31 73.6907 1417.02 72.304C1417.74 70.9173 1418.71 69.8507 1419.93 69.104C1421.17 68.3573 1422.54 67.984 1424.06 67.984C1425.38 67.984 1426.53 68.2507 1427.51 68.784C1428.52 69.3173 1429.32 69.9893 1429.91 70.8V68.272H1434.43V86H1429.91V83.408C1429.34 84.24 1428.54 84.9333 1427.51 85.488C1426.51 86.0213 1425.35 86.288 1424.03 86.288C1422.53 86.288 1421.17 85.904 1419.93 85.136C1418.71 84.368 1417.74 83.2907 1417.02 81.904C1416.31 80.496 1415.96 78.8853 1415.96 77.072ZM1429.91 77.136C1429.91 76.048 1429.7 75.12 1429.27 74.352C1428.85 73.5627 1428.27 72.9653 1427.55 72.56C1426.82 72.1333 1426.04 71.92 1425.21 71.92C1424.38 71.92 1423.61 72.1227 1422.91 72.528C1422.2 72.9333 1421.63 73.5307 1421.18 74.32C1420.75 75.088 1420.54 76.0053 1420.54 77.072C1420.54 78.1387 1420.75 79.0773 1421.18 79.888C1421.63 80.6773 1422.2 81.2853 1422.91 81.712C1423.63 82.1387 1424.4 82.352 1425.21 82.352C1426.04 82.352 1426.82 82.1493 1427.55 81.744C1428.27 81.3173 1428.85 80.72 1429.27 79.952C1429.7 79.1627 1429.91 78.224 1429.91 77.136ZM1437.65 77.072C1437.65 75.28 1438 73.6907 1438.71 72.304C1439.43 70.9173 1440.41 69.8507 1441.65 69.104C1442.89 68.3573 1444.26 67.984 1445.78 67.984C1446.93 67.984 1448.03 68.24 1449.07 68.752C1450.12 69.2427 1450.95 69.904 1451.57 70.736V62.32H1456.11V86H1451.57V83.376C1451.02 84.2507 1450.24 84.9547 1449.23 85.488C1448.23 86.0213 1447.07 86.288 1445.75 86.288C1444.25 86.288 1442.89 85.904 1441.65 85.136C1440.41 84.368 1439.43 83.2907 1438.71 81.904C1438 80.496 1437.65 78.8853 1437.65 77.072ZM1451.6 77.136C1451.6 76.048 1451.39 75.12 1450.96 74.352C1450.54 73.5627 1449.96 72.9653 1449.23 72.56C1448.51 72.1333 1447.73 71.92 1446.9 71.92C1446.07 71.92 1445.3 72.1227 1444.59 72.528C1443.89 72.9333 1443.31 73.5307 1442.87 74.32C1442.44 75.088 1442.23 76.0053 1442.23 77.072C1442.23 78.1387 1442.44 79.0773 1442.87 79.888C1443.31 80.6773 1443.89 81.2853 1444.59 81.712C1445.32 82.1387 1446.09 82.352 1446.9 82.352C1447.73 82.352 1448.51 82.1493 1449.23 81.744C1449.96 81.3173 1450.54 80.72 1450.96 79.952C1451.39 79.1627 1451.6 78.224 1451.6 77.136ZM1476.97 76.752C1476.97 77.392 1476.93 77.968 1476.84 78.48H1463.88C1463.99 79.76 1464.44 80.7627 1465.23 81.488C1466.01 82.2133 1466.99 82.576 1468.14 82.576C1469.8 82.576 1470.99 81.8613 1471.69 80.432H1476.52C1476.01 82.1387 1475.03 83.5467 1473.58 84.656C1472.13 85.744 1470.35 86.288 1468.23 86.288C1466.53 86.288 1464.99 85.9147 1463.63 85.168C1462.28 84.4 1461.23 83.3227 1460.46 81.936C1459.71 80.5493 1459.34 78.9493 1459.34 77.136C1459.34 75.3013 1459.71 73.6907 1460.46 72.304C1461.2 70.9173 1462.25 69.8507 1463.59 69.104C1464.94 68.3573 1466.48 67.984 1468.23 67.984C1469.92 67.984 1471.42 68.3467 1472.75 69.072C1474.09 69.7973 1475.12 70.832 1475.85 72.176C1476.6 73.4987 1476.97 75.024 1476.97 76.752ZM1472.33 75.472C1472.31 74.32 1471.89 73.4027 1471.08 72.72C1470.27 72.016 1469.28 71.664 1468.11 71.664C1467 71.664 1466.06 72.0053 1465.29 72.688C1464.54 73.3493 1464.08 74.2773 1463.91 75.472H1472.33Z" fill="#424242"/>
<g clip-path="url(#clip0_12_138)">
<path fill-rule="evenodd" clip-rule="evenodd" d="M255.55 50H289.5L292.05 52.5V75.035C290.488 73.8557 288.793 72.8639 287 72.08V64.95H255.45L251.15 69.25L249.4 70H226.95V100H252.5C252.853 101.743 253.38 103.41 254.08 105H224.55L222.05 102.5V47.5L224.55 45H249.55L251.3 45.75L255.55 50ZM254.45 60H286.95L287 55.05H254.5L252.7 54.3L248.45 50.05H227V65.05H248.4L252.7 60.75L254.45 60Z" fill="#424242"/>
<path fill-rule="evenodd" clip-rule="evenodd" d="M265.89 78.37C268.074 76.8946 270.527 75.8653 273.11 75.3412C275.692 74.8172 278.353 74.8086 280.939 75.3162C283.525 75.8237 285.985 76.8373 288.178 78.2986C290.371 79.76 292.254 81.6403 293.717 83.8316C295.181 86.0228 296.198 88.4818 296.708 91.0671C297.219 93.6525 297.213 96.3132 296.692 98.8964C296.171 101.48 295.145 103.934 293.672 106.12C292.199 108.305 290.309 110.178 288.11 111.63C283.699 114.543 278.314 115.592 273.133 114.547C267.951 113.502 263.394 110.447 260.457 106.052C257.521 101.656 256.444 96.2771 257.462 91.0899C258.48 85.9027 261.51 81.3295 265.89 78.37ZM276.54 103.32L288.475 87.41L284.475 84.41L274.09 98.255L267.585 93.05L264.46 96.95L272.98 103.77L276.545 103.32H276.54Z" fill="#424242"/>
</g>
<path fill-rule="evenodd" clip-rule="evenodd" d="M731.5 40H666.5L664 42.5V57.5L666.5 60H669V102.5L671.5 105H726.5L729 102.5V60H731.5L734 57.5V42.5L731.5 40ZM726.5 55H669V45H729V55H726.5ZM674 100V60H724V100H674ZM714 70H684V75H714V70Z" fill="#424242"/>
<path fill-rule="evenodd" clip-rule="evenodd" d="M1495.03 76.335L1488.9 82.5L1485 78.65L1495.45 68.3L1499.25 68.35L1509.7 78.95L1505.9 82.75L1500.07 76.85C1500.46 82.2552 1502.61 87.3849 1506.17 91.4661C1509.74 95.5474 1514.53 98.3592 1519.84 99.4779C1525.14 100.597 1530.66 99.9617 1535.57 97.6688C1540.49 95.3758 1544.52 91.549 1547.07 86.765L1551.13 89.75C1547.93 95.4255 1542.97 99.9043 1536.99 102.509C1531.02 105.114 1524.36 105.703 1518.02 104.188C1511.69 102.672 1506.01 99.1344 1501.87 94.1092C1497.72 89.0841 1495.32 82.8449 1495.03 76.335ZM1549.98 74.005L1543.8 67.75L1540 71.55L1550.45 82.1L1554.25 82.15L1564.7 71.8L1560.95 68L1554.98 73.9C1554.75 67.4623 1552.45 61.2709 1548.42 56.2418C1544.39 51.2127 1538.86 47.6132 1532.63 45.9757C1526.4 44.3382 1519.8 44.7497 1513.82 47.1493C1507.85 49.549 1502.8 53.8093 1499.43 59.3L1503.48 62.27C1506.23 57.6251 1510.4 53.9935 1515.38 51.9177C1520.36 49.842 1525.88 49.4335 1531.11 50.7534C1536.35 52.0732 1541.01 55.0506 1544.41 59.2405C1547.81 63.4305 1549.77 68.6132 1549.98 74.005Z" fill="#424242"/>
<defs>
<clipPath id="clip0_12_138">
<rect width="80" height="80" fill="white" transform="translate(217 35)"/>
</clipPath>
</defs>
</svg>
